<?xml version="1.0" encoding="UTF-8"?>
<svg id="Layer_1" data-name="Layer 1" xmlns="http://www.w3.org/2000/svg" viewBox="0 0 500 500">
  <defs>
    <style>
      .cls-1 {
        fill: #fff;
      }

      .cls-2 {
        letter-spacing: -.02em;
      }

      .cls-3 {
        fill: #5955a8;
      }

      .cls-4 {
        fill: #8e8dd1;
      }

      .cls-5 {
        fill: #c74b50;
      }

      .cls-6, .cls-7, .cls-8, .cls-9, .cls-10 {
        fill: #2f2d59;
      }

      .cls-6, .cls-8, .cls-9 {
        isolation: isolate;
      }

      .cls-6, .cls-8, .cls-10 {
        font-family: FuturaBT-Medium, 'Futura Md BT';
      }

      .cls-6, .cls-10 {
        font-size: 14px;
      }

      .cls-11 {
        fill: #5c57ad;
      }

      .cls-12 {
        fill: #49458a;
      }

      .cls-13 {
        fill: #d65a5f;
      }

      .cls-14 {
        fill: #5653a3;
      }

      .cls-15 {
        fill: #d49b54;
      }

      .cls-8 {
        font-size: 10px;
      }

      .cls-9 {
        font-family: CopperplateGothic-Bold, 'Copperplate Gothic Bold';
        font-size: 31px;
      }

      .cls-16 {
        fill: #e09c48;
      }

      .cls-17 {
        fill: none;
      }

      .cls-18 {
        fill: #faebd7;
      }

      .cls-19 {
        fill: #3a3845;
      }
    </style>
  </defs>
  <rect class="cls-17" width="500" height="500"/>
  <g>
    <g>
      <g>
        <g>
          <rect class="cls-7" x="96.17" y="125.98" width="25.94" height="18.12"/>
          <path class="cls-3" d="M54.18,126.4c0,1.06,.86,1.92,1.92,1.92h106.08c1.06,0,1.92-.86,1.92-1.92V54.15c0-1.06-.86-1.92-1.92-1.92H56.1c-1.06,0-1.92,.86-1.92,1.92,0,0,0,72.26,0,72.26Z"/>
          <path class="cls-12" d="M164.1,58.72V126.4c0,1.06-.86,1.92-1.92,1.92H62.83L164.1,58.72Z"/>
          <rect class="cls-1" x="57.03" y="55.07" width="104.23" height="62.03"/>
          <path class="cls-3" d="M126.83,144.09c0-.35-.29-.64-.64-.64h-34.1c-.35,0-.64,.29-.64,.64v2.2c0,.35,.29,.64,.64,.64h34.1c.35,0,.64-.29,.64-.64v-2.2h0Z"/>
        </g>
        <g>
          <path class="cls-14" d="M144.1,107.38c0,.35-.29,.64-.64,.64H74.83c-.35,0-.64-.29-.64-.64v-42.58c0-.35,.29-.64,.64-.64h68.63c.35,0,.64,.29,.64,.64v42.58Z"/>
          <rect class="cls-1" x="75.86" y="71.25" width="66.08" height="34.05"/>
          <g>
            <path class="cls-15" d="M79.68,67.76c0,.75-.61,1.36-1.36,1.36s-1.36-.61-1.36-1.36,.61-1.36,1.36-1.36,1.36,.61,1.36,1.36Z"/>
            <path class="cls-15" d="M85.01,67.76c0,.75-.61,1.36-1.36,1.36s-1.36-.61-1.36-1.36,.61-1.36,1.36-1.36,1.36,.61,1.36,1.36Z"/>
            <path class="cls-15" d="M90.34,67.76c0,.75-.61,1.36-1.36,1.36s-1.36-.61-1.36-1.36,.61-1.36,1.36-1.36,1.36,.61,1.36,1.36Z"/>
          </g>
          <g>
            <rect class="cls-5" x="78.32" y="84.03" width="17.85" height="19"/>
            <rect class="cls-5" x="98.82" y="84.03" width="17.85" height="19"/>
            <rect class="cls-5" x="119.32" y="84.03" width="17.85" height="19"/>
          </g>
          <g>
            <g>
              <rect class="cls-15" x="78.75" y="74.01" width="17" height=".92"/>
              <rect class="cls-15" x="78.75" y="76.07" width="17" height=".92"/>
              <rect class="cls-15" x="78.75" y="78.14" width="17" height=".92"/>
              <rect class="cls-15" x="78.75" y="80.2" width="17" height=".92"/>
            </g>
            <g>
              <rect class="cls-15" x="99.25" y="74.01" width="17" height=".92"/>
              <rect class="cls-15" x="99.25" y="76.07" width="17" height=".92"/>
              <rect class="cls-15" x="99.25" y="78.14" width="17" height=".92"/>
              <rect class="cls-15" x="99.25" y="80.2" width="17" height=".92"/>
            </g>
            <g>
              <rect class="cls-15" x="119.75" y="74.01" width="17" height=".92"/>
              <rect class="cls-15" x="119.75" y="76.07" width="17" height=".92"/>
              <rect class="cls-15" x="119.75" y="78.14" width="17" height=".92"/>
              <rect class="cls-15" x="119.75" y="80.2" width="17" height=".92"/>
            </g>
          </g>
        </g>
      </g>
      <g>
        <g>
          <path class="cls-19" d="M129.51,81.97c0-1.66,1.34-3,3-3h32.46c1.66,0,3,1.34,3,3v61.96c0,1.66-1.34,3-3,3h-32.46c-1.66,0-3-1.34-3-3v-61.96Z"/>
          <rect class="cls-1" x="132.06" y="81.49" width="33.38" height="60.38"/>
          <polygon class="cls-19" points="153.85 82.95 143.51 82.95 141.51 81.12 155.85 81.12 153.85 82.95"/>
        </g>
        <g>
          <g>
            <path class="cls-14" d="M160.51,106.53c-.55,0-1,.45-1,1v18.67c0,.55,.45,1,1,1h4.92v-20.67h-4.92Z"/>
            <rect class="cls-18" x="161.26" y="108.62" width="4.17" height="8.25"/>
            <rect class="cls-5" x="161.26" y="119.03" width="4.17" height="6.67"/>
          </g>
          <g>
            <path class="cls-14" d="M156.85,126.2c0,.55-.45,1-1,1h-19c-.55,0-1-.45-1-1v-18.67c0-.55,.45-1,1-1h19c.55,0,1,.45,1,1v18.67Z"/>
            <rect class="cls-5" x="137.81" y="119.03" width="7.42" height="6.67"/>
            <rect class="cls-18" x="137.81" y="108.62" width="17" height="8.25"/>
            <rect class="cls-5" x="147.39" y="119.03" width="7.42" height="6.67"/>
          </g>
          <g>
            <g>
              <rect class="cls-15" x="137.81" y="130.29" width="17" height=".92"/>
              <rect class="cls-15" x="137.81" y="132.35" width="17" height=".92"/>
              <rect class="cls-15" x="137.81" y="134.41" width="17" height=".92"/>
              <rect class="cls-15" x="137.81" y="136.47" width="17" height=".92"/>
            </g>
            <g>
              <rect class="cls-15" x="161.26" y="130.29" width="4.17" height=".92"/>
              <rect class="cls-15" x="161.26" y="132.35" width="4.17" height=".92"/>
              <rect class="cls-15" x="161.26" y="134.41" width="4.17" height=".92"/>
              <rect class="cls-15" x="161.26" y="136.47" width="4.17" height=".92"/>
            </g>
          </g>
          <g>
            <path class="cls-14" d="M161.45,102.03c0,.55-.45,1-1,1h-23.41c-.55,0-1-.45-1-1v-12.76c0-.55,.45-1,1-1h23.41c.55,0,1,.45,1,1v12.76Z"/>
            <g>
              <path class="cls-1" d="M158.68,92.02h-19.88c-.16,0-.3-.13-.3-.3s.13-.3,.3-.3h19.88c.16,0,.3,.13,.3,.3,0,.17-.13,.3-.3,.3Z"/>
              <path class="cls-1" d="M158.68,93.99h-19.88c-.16,0-.3-.13-.3-.3s.13-.3,.3-.3h19.88c.16,0,.3,.13,.3,.3,0,.17-.13,.3-.3,.3Z"/>
              <path class="cls-1" d="M158.68,95.96h-19.88c-.16,0-.3-.13-.3-.3s.13-.3,.3-.3h19.88c.16,0,.3,.13,.3,.3s-.13,.3-.3,.3Z"/>
              <path class="cls-1" d="M158.68,97.92h-19.88c-.16,0-.3-.13-.3-.3s.13-.3,.3-.3h19.88c.16,0,.3,.13,.3,.3,0,.17-.13,.3-.3,.3Z"/>
              <path class="cls-1" d="M158.68,99.89h-19.88c-.16,0-.3-.13-.3-.3s.13-.3,.3-.3h19.88c.16,0,.3,.13,.3,.3,0,.17-.13,.3-.3,.3Z"/>
            </g>
          </g>
        </g>
      </g>
    </g>
    <g>
      <g>
        <path class="cls-4" d="M371.6,147.48c-24.02,0-43.56-19.54-43.56-43.56s19.54-43.56,43.56-43.56,43.56,19.54,43.56,43.56-19.54,43.56-43.56,43.56Zm0-85.63c-23.19,0-42.06,18.87-42.06,42.06s18.87,42.06,42.06,42.06,42.06-18.87,42.06-42.06-18.87-42.06-42.06-42.06Z"/>
        <path class="cls-4" d="M371.6,147.48c-.41,0-.75-.34-.75-.75V61.1c0-.41,.34-.75,.75-.75s.75,.34,.75,.75v85.63c0,.41-.34,.75-.75,.75Z"/>
        <path class="cls-4" d="M414.41,104.66h-85.63c-.41,0-.75-.34-.75-.75s.34-.75,.75-.75h85.63c.41,0,.75,.34,.75,.75s-.34,.75-.75,.75Z"/>
        <path class="cls-4" d="M371.6,92.4c-25.89,0-36.93-8.66-37.39-9.03-.32-.26-.37-.73-.11-1.05,.26-.32,.73-.38,1.05-.11,.11,.09,11.15,8.69,36.45,8.69s36.67-8.61,36.79-8.7c.33-.26,.8-.2,1.05,.13,.26,.33,.2,.8-.13,1.05-.47,.37-11.82,9.02-37.71,9.02Z"/>
        <path class="cls-4" d="M371.6,76.83c-20.75,0-24.19-7.99-24.33-8.33-.15-.39,.03-.82,.42-.98,.39-.15,.82,.03,.98,.42,.03,.07,3.36,7.39,22.94,7.39s22.13-7.29,22.16-7.37c.14-.38,.57-.58,.96-.44,.39,.14,.59,.56,.45,.95-.12,.34-3.18,8.36-23.57,8.36Z"/>
        <path class="cls-4" d="M334.35,125.78c-.22,0-.44-.1-.59-.29-.26-.33-.2-.8,.13-1.05,.47-.37,11.82-9.02,37.71-9.02s36.93,8.66,37.39,9.03c.32,.26,.37,.73,.11,1.05-.26,.32-.73,.38-1.05,.11-.11-.09-11.15-8.69-36.45-8.69s-36.67,8.61-36.79,8.7c-.14,.11-.3,.16-.46,.16Z"/>
        <path class="cls-4" d="M395.23,140.36c-.3,0-.58-.18-.7-.47-.03-.07-3.36-7.39-22.94-7.39s-22.13,7.29-22.16,7.37c-.14,.38-.57,.59-.96,.45-.39-.14-.59-.56-.45-.95,.12-.34,3.18-8.36,23.57-8.36s24.19,7.99,24.33,8.33c.15,.38-.03,.82-.42,.98-.09,.04-.19,.05-.28,.05Z"/>
        <path class="cls-4" d="M371.6,147.48c-.22,0-.44-.1-.58-.28-.26-.32-.21-.79,.11-1.05,.15-.12,14.71-12.18,14.71-41.92s-14.58-42.43-14.72-42.55c-.32-.27-.36-.74-.09-1.06,.27-.31,.74-.36,1.06-.09,.62,.53,15.26,13.2,15.26,43.7s-14.65,42.59-15.27,43.09c-.14,.11-.3,.16-.47,.16Z"/>
        <path class="cls-4" d="M371.6,147.48c-.3,0-.58-.18-.7-.48-.15-.39,.04-.82,.42-.97,.3-.12,30.26-12.18,30.26-41.81s-29.97-42.31-30.27-42.43c-.38-.16-.57-.6-.41-.98,.16-.38,.59-.56,.98-.41,.31,.13,31.2,13.17,31.2,43.82s-30.9,43.08-31.22,43.2c-.09,.04-.18,.05-.27,.05Z"/>
        <path class="cls-4" d="M371.6,147.48c-.16,0-.33-.05-.47-.16-.62-.5-15.27-12.58-15.27-43.09s14.63-43.17,15.26-43.7c.32-.27,.79-.22,1.06,.09,.27,.32,.23,.79-.09,1.06-.15,.12-14.72,12.8-14.72,42.55s14.56,41.8,14.71,41.92c.32,.26,.37,.73,.11,1.05-.15,.19-.37,.28-.59,.28Z"/>
        <path class="cls-4" d="M371.6,147.48c-.09,0-.18-.02-.27-.05-.31-.12-31.22-12.54-31.22-43.2s30.89-43.69,31.2-43.82c.38-.16,.82,.03,.98,.41,.16,.38-.02,.82-.41,.98-.3,.12-30.27,12.8-30.27,42.43s29.96,41.69,30.26,41.81c.39,.15,.58,.59,.42,.97-.12,.29-.4,.48-.7,.48Z"/>
      </g>
      <g>
        <path class="cls-12" d="M446.33,128.5h-121.25c0-20.46,17.5-36.21,40.25-33.96,8.5-23.5,41.67-26,53-4.5,27.25,0,34.5,23.25,28,38.46Z"/>
        <g>
          <g>
            <path class="cls-7" d="M412.37,103.09c0-1.35,.89-2.49,2.11-2.87-.22-1.42-.59-2.8-1.1-4.1-1.25,.29-2.59-.26-3.27-1.42-.68-1.17-.49-2.6,.37-3.54-.91-1.12-1.94-2.14-3.08-3.03-.93,.88-2.36,1.09-3.54,.43-1.18-.66-1.74-1.99-1.47-3.25-1.23-.46-2.51-.8-3.84-1-.39,1.22-1.53,2.11-2.88,2.11s-2.49-.89-2.87-2.11c-1.42,.22-2.8,.59-4.1,1.1,.28,1.25-.26,2.59-1.42,3.27-1.17,.68-2.6,.49-3.54-.38-1.12,.91-2.14,1.94-3.03,3.08,.88,.93,1.09,2.36,.43,3.54-.66,1.18-2,1.74-3.25,1.47-.46,1.22-.8,2.51-1,3.84,1.22,.38,2.11,1.53,2.11,2.87s-.89,2.49-2.11,2.88c.22,1.42,.59,2.8,1.1,4.1,1.25-.29,2.59,.25,3.27,1.42,.68,1.17,.49,2.6-.38,3.54,.91,1.12,1.94,2.14,3.08,3.03,.93-.88,2.36-1.09,3.54-.43,1.17,.66,1.74,2,1.47,3.25,1.23,.46,2.51,.8,3.84,1,.38-1.22,1.52-2.11,2.87-2.11s2.49,.89,2.88,2.11c1.42-.22,2.8-.59,4.1-1.1-.28-1.25,.26-2.59,1.42-3.27,1.17-.68,2.6-.49,3.54,.38,1.12-.91,2.14-1.94,3.03-3.08-.88-.93-1.09-2.36-.43-3.54,.66-1.18,1.99-1.74,3.25-1.47,.46-1.22,.8-2.51,1.01-3.84-1.22-.38-2.11-1.53-2.11-2.87Zm-16.69,11.05c-6.1,0-11.05-4.95-11.05-11.05s4.95-11.05,11.05-11.05,11.06,4.95,11.06,11.05c0,6.11-4.95,11.05-11.06,11.05Z"/>
            <path class="cls-7" d="M421.63,112.23c0-.82,.54-1.52,1.29-1.75-.13-.87-.36-1.71-.67-2.5-.76,.17-1.58-.16-2-.87-.41-.71-.3-1.58,.23-2.16-.55-.69-1.18-1.31-1.88-1.85-.57,.53-1.44,.66-2.16,.26-.72-.4-1.06-1.22-.9-1.98-.75-.28-1.53-.49-2.34-.61-.23,.75-.93,1.29-1.76,1.29s-1.52-.54-1.75-1.29c-.87,.13-1.71,.36-2.5,.67,.17,.76-.16,1.58-.87,2-.71,.41-1.58,.3-2.16-.23-.68,.55-1.31,1.18-1.85,1.88,.53,.57,.67,1.44,.26,2.16s-1.22,1.06-1.98,.9c-.28,.75-.49,1.53-.61,2.34,.74,.23,1.29,.93,1.29,1.75s-.54,1.52-1.29,1.75c.13,.87,.36,1.71,.67,2.5,.76-.17,1.58,.15,1.99,.87,.42,.71,.3,1.58-.23,2.16,.55,.69,1.18,1.31,1.88,1.85,.57-.54,1.44-.67,2.16-.26,.72,.4,1.06,1.22,.9,1.98,.75,.28,1.53,.49,2.34,.61,.23-.75,.93-1.29,1.75-1.29s1.52,.54,1.76,1.29c.87-.13,1.71-.36,2.5-.67-.17-.76,.15-1.58,.87-2,.71-.41,1.58-.3,2.16,.23,.68-.55,1.31-1.18,1.85-1.88-.53-.57-.67-1.44-.26-2.16,.4-.72,1.22-1.06,1.98-.9,.28-.75,.49-1.53,.61-2.34-.75-.23-1.29-.93-1.29-1.75Zm-10.19,6.75c-3.73,0-6.75-3.02-6.75-6.75s3.02-6.75,6.75-6.75,6.75,3.02,6.75,6.75-3.02,6.75-6.75,6.75Z"/>
            <path class="cls-7" d="M381.78,112.23c0-.82,.54-1.52,1.29-1.75-.13-.87-.36-1.71-.67-2.5-.76,.17-1.58-.16-2-.87-.41-.71-.3-1.58,.23-2.16-.55-.69-1.18-1.31-1.88-1.85-.57,.53-1.44,.66-2.16,.26-.72-.4-1.06-1.22-.9-1.98-.75-.28-1.53-.49-2.34-.61-.23,.75-.93,1.29-1.76,1.29s-1.52-.54-1.75-1.29c-.87,.13-1.71,.36-2.5,.67,.17,.76-.16,1.58-.87,2-.71,.41-1.58,.3-2.16-.23-.68,.55-1.31,1.18-1.85,1.88,.53,.57,.67,1.44,.26,2.16-.4,.72-1.22,1.06-1.98,.9-.28,.75-.49,1.53-.61,2.34,.74,.23,1.29,.93,1.29,1.75s-.54,1.52-1.29,1.75c.13,.87,.36,1.71,.67,2.5,.76-.17,1.58,.15,1.99,.87,.42,.71,.3,1.58-.23,2.16,.55,.69,1.18,1.31,1.88,1.85,.57-.54,1.44-.67,2.16-.26,.72,.4,1.06,1.22,.9,1.98,.75,.28,1.53,.49,2.34,.61,.23-.75,.93-1.29,1.75-1.29s1.52,.54,1.76,1.29c.87-.13,1.71-.36,2.5-.67-.17-.76,.15-1.58,.87-2,.71-.41,1.58-.3,2.16,.23,.68-.55,1.31-1.18,1.85-1.88-.53-.57-.67-1.44-.26-2.16,.4-.72,1.22-1.06,1.98-.9,.28-.75,.49-1.53,.61-2.34-.75-.23-1.29-.93-1.29-1.75Zm-10.19,6.75c-3.73,0-6.75-3.02-6.75-6.75s3.02-6.75,6.75-6.75,6.75,3.02,6.75,6.75c0,3.73-3.02,6.75-6.75,6.75Z"/>
          </g>
          <g>
            <path class="cls-1" d="M411.2,101.92c0-1.35,.89-2.49,2.11-2.87-.22-1.42-.59-2.8-1.1-4.1-1.25,.29-2.59-.26-3.27-1.42-.68-1.17-.49-2.6,.37-3.54-.91-1.12-1.94-2.14-3.08-3.03-.93,.88-2.36,1.09-3.54,.43-1.18-.66-1.74-1.99-1.47-3.25-1.23-.46-2.51-.8-3.84-1-.39,1.22-1.53,2.11-2.88,2.11s-2.49-.89-2.87-2.11c-1.42,.22-2.8,.59-4.1,1.1,.28,1.25-.26,2.59-1.42,3.27-1.17,.68-2.6,.49-3.54-.38-1.12,.91-2.14,1.94-3.03,3.08,.88,.93,1.09,2.36,.43,3.54-.66,1.18-1.99,1.74-3.25,1.47-.46,1.22-.8,2.51-1,3.84,1.22,.38,2.11,1.53,2.11,2.87s-.89,2.49-2.11,2.88c.22,1.42,.59,2.8,1.1,4.1,1.25-.29,2.59,.25,3.27,1.42,.68,1.17,.49,2.6-.37,3.54,.91,1.12,1.94,2.14,3.08,3.03,.93-.88,2.36-1.09,3.54-.43,1.17,.66,1.73,2,1.47,3.25,1.22,.46,2.51,.8,3.84,1,.38-1.22,1.52-2.11,2.87-2.11s2.49,.89,2.88,2.11c1.42-.22,2.8-.59,4.1-1.1-.28-1.25,.26-2.59,1.42-3.27,1.17-.68,2.6-.49,3.54,.38,1.12-.91,2.14-1.94,3.03-3.08-.88-.93-1.09-2.36-.43-3.54,.66-1.18,2-1.74,3.25-1.47,.46-1.22,.8-2.51,1.01-3.84-1.22-.38-2.11-1.52-2.11-2.87Zm-16.69,11.05c-6.11,0-11.05-4.95-11.05-11.05s4.95-11.05,11.05-11.05,11.05,4.95,11.05,11.05c0,6.11-4.95,11.05-11.05,11.05Z"/>
            <path class="cls-16" d="M420.46,111.06c0-.82,.54-1.52,1.29-1.75-.13-.87-.36-1.71-.67-2.5-.76,.17-1.58-.16-2-.87-.41-.71-.3-1.58,.23-2.16-.55-.68-1.18-1.31-1.88-1.85-.57,.53-1.44,.66-2.16,.26-.72-.4-1.06-1.22-.9-1.98-.75-.28-1.53-.49-2.35-.61-.23,.75-.93,1.29-1.76,1.29s-1.52-.54-1.75-1.29c-.87,.13-1.71,.36-2.5,.67,.17,.76-.16,1.58-.87,2-.71,.41-1.58,.3-2.16-.23-.69,.56-1.31,1.18-1.85,1.88,.53,.57,.66,1.44,.26,2.16-.4,.72-1.22,1.06-1.98,.9-.28,.75-.49,1.53-.61,2.34,.74,.23,1.29,.93,1.29,1.75s-.54,1.52-1.29,1.75c.13,.87,.36,1.71,.67,2.5,.76-.17,1.58,.15,2,.87,.42,.71,.3,1.58-.23,2.16,.55,.69,1.18,1.31,1.88,1.85,.57-.54,1.44-.67,2.16-.26,.72,.4,1.06,1.22,.9,1.98,.75,.28,1.53,.49,2.34,.61,.23-.75,.93-1.29,1.75-1.29s1.52,.54,1.76,1.29c.87-.13,1.71-.36,2.5-.67-.17-.76,.15-1.58,.87-2,.71-.41,1.58-.3,2.16,.23,.69-.56,1.31-1.18,1.85-1.88-.54-.57-.67-1.44-.26-2.16,.4-.72,1.22-1.06,1.98-.9,.28-.75,.49-1.53,.61-2.34-.75-.23-1.29-.93-1.29-1.76Zm-10.19,6.75c-3.73,0-6.75-3.02-6.75-6.75s3.02-6.75,6.75-6.75,6.75,3.02,6.75,6.75c0,3.73-3.02,6.75-6.75,6.75Z"/>
            <path class="cls-13" d="M380.61,111.06c0-.82,.54-1.52,1.29-1.75-.13-.87-.36-1.71-.67-2.5-.76,.17-1.58-.16-2-.87-.41-.71-.3-1.58,.23-2.16-.55-.68-1.18-1.31-1.88-1.85-.57,.53-1.44,.66-2.16,.26-.72-.4-1.06-1.22-.9-1.98-.75-.28-1.53-.49-2.35-.61-.23,.75-.93,1.29-1.76,1.29s-1.52-.54-1.75-1.29c-.87,.13-1.71,.36-2.5,.67,.17,.76-.16,1.58-.87,2-.71,.41-1.58,.3-2.16-.23-.69,.56-1.31,1.18-1.85,1.88,.53,.57,.66,1.44,.26,2.16-.4,.72-1.22,1.06-1.98,.9-.28,.75-.49,1.53-.61,2.34,.74,.23,1.29,.93,1.29,1.75s-.54,1.52-1.29,1.75c.13,.87,.36,1.71,.67,2.5,.76-.17,1.58,.15,2,.87,.42,.71,.3,1.58-.23,2.16,.55,.69,1.18,1.31,1.88,1.85,.57-.54,1.44-.67,2.16-.26,.72,.4,1.06,1.22,.9,1.98,.75,.28,1.53,.49,2.34,.61,.23-.75,.93-1.29,1.75-1.29s1.52,.54,1.76,1.29c.87-.13,1.71-.36,2.5-.67-.17-.76,.15-1.58,.87-2,.71-.41,1.58-.3,2.16,.23,.69-.56,1.31-1.18,1.85-1.88-.54-.57-.67-1.44-.26-2.16,.4-.72,1.22-1.06,1.98-.9,.28-.75,.49-1.53,.61-2.34-.75-.23-1.29-.93-1.29-1.76Zm-10.19,6.75c-3.73,0-6.75-3.02-6.75-6.75s3.02-6.75,6.75-6.75,6.75,3.02,6.75,6.75-3.02,6.75-6.75,6.75Z"/>
          </g>
        </g>
      </g>
    </g>
    <g>
      <g>
        <path class="cls-15" d="M144.5,410.21H75c-.83,0-1.5-.67-1.5-1.5v-12.67c0-.83,.67-1.5,1.5-1.5s1.5,.67,1.5,1.5v11.17h66.5v-11.17c0-.83,.67-1.5,1.5-1.5s1.5,.67,1.5,1.5v12.67c0,.83-.67,1.5-1.5,1.5Z"/>
        <path class="cls-15" d="M264.45,392.38h-94.47c-.83,0-1.5-.67-1.5-1.5s.67-1.5,1.5-1.5h92.97v-43.52c0-.83,.67-1.5,1.5-1.5h86.27c.83,0,1.5,.67,1.5,1.5s-.67,1.5-1.5,1.5h-84.77v43.52c0,.83-.67,1.5-1.5,1.5Z"/>
        <path class="cls-15" d="M437.82,397.42h-85.67c-1.61,0-2.93-1.31-2.93-2.93v-79.76c0-1.61,1.31-2.93,2.93-2.93h85.67c1.61,0,2.93,1.31,2.93,2.93v79.76c0,1.61-1.31,2.93-2.93,2.93Zm-85.6-3h85.52v-79.61h-85.52v79.61Z"/>
        <polygon class="cls-15" points="210.14 396.17 220.14 390.4 210.14 384.63 210.14 396.17"/>
        <polygon class="cls-15" points="303.61 351.56 313.61 345.79 303.61 340.02 303.61 351.56"/>
      </g>
      <g>
        <g>
          <path class="cls-7" d="M145.34,400.23c0,.98-.79,1.77-1.77,1.77H64c-.98,0-1.77-.79-1.77-1.77v-96.89c0-.98,.79-1.77,1.77-1.77h79.57c.98,0,1.77,.79,1.77,1.77v96.89Z"/>
          <g>
            <g>
              <rect class="cls-16" x="65.98" y="313.43" width="75.33" height="8.77"/>
              <g>
                <rect class="cls-1" x="68.93" y="315.68" width="4.28" height="4.28"/>
                <rect class="cls-1" x="75.43" y="315.68" width="4.28" height="4.28"/>
                <rect class="cls-1" x="81.93" y="315.68" width="4.28" height="4.28"/>
              </g>
            </g>
            <g>
              <rect class="cls-16" x="65.98" y="324.36" width="75.33" height="8.77"/>
              <g>
                <rect class="cls-1" x="68.93" y="326.61" width="4.28" height="4.28"/>
                <rect class="cls-1" x="75.43" y="326.61" width="4.28" height="4.28"/>
                <rect class="cls-1" x="81.93" y="326.61" width="4.28" height="4.28"/>
              </g>
            </g>
            <g>
              <rect class="cls-16" x="65.98" y="335.29" width="75.33" height="8.77"/>
              <g>
                <rect class="cls-1" x="68.93" y="337.54" width="4.28" height="4.28"/>
                <rect class="cls-1" x="75.43" y="337.54" width="4.28" height="4.28"/>
                <rect class="cls-1" x="81.93" y="337.54" width="4.28" height="4.28"/>
              </g>
            </g>
            <g>
              <rect class="cls-16" x="65.98" y="346.22" width="75.33" height="8.77"/>
              <g>
                <rect class="cls-1" x="68.93" y="348.46" width="4.28" height="4.28"/>
                <rect class="cls-1" x="75.43" y="348.46" width="4.28" height="4.28"/>
                <rect class="cls-1" x="81.93" y="348.46" width="4.28" height="4.28"/>
              </g>
            </g>
            <g>
              <rect class="cls-16" x="65.98" y="357.15" width="75.33" height="8.77"/>
              <g>
                <rect class="cls-1" x="68.93" y="359.39" width="4.28" height="4.28"/>
                <rect class="cls-1" x="75.43" y="359.39" width="4.28" height="4.28"/>
                <rect class="cls-1" x="81.93" y="359.39" width="4.28" height="4.28"/>
              </g>
            </g>
            <g>
              <rect class="cls-16" x="65.98" y="368.08" width="75.33" height="8.77"/>
              <g>
                <rect class="cls-1" x="68.93" y="370.32" width="4.28" height="4.28"/>
                <rect class="cls-1" x="75.43" y="370.32" width="4.28" height="4.28"/>
                <rect class="cls-1" x="81.93" y="370.32" width="4.28" height="4.28"/>
              </g>
            </g>
            <g>
              <rect class="cls-16" x="65.98" y="379.01" width="75.33" height="8.77"/>
              <g>
                <rect class="cls-1" x="68.93" y="381.25" width="4.28" height="4.28"/>
                <rect class="cls-1" x="75.43" y="381.25" width="4.28" height="4.28"/>
                <rect class="cls-1" x="81.93" y="381.25" width="4.28" height="4.28"/>
              </g>
            </g>
          </g>
        </g>
        <g>
          <path class="cls-11" d="M170.58,400.76c0,.69-.56,1.25-1.25,1.25h-56.05c-.69,0-1.25-.56-1.25-1.25v-68.25c0-.69,.56-1.25,1.25-1.25h56.05c.69,0,1.25,.56,1.25,1.25v68.25Z"/>
          <g>
            <g>
              <rect class="cls-7" x="114.67" y="339.61" width="53.06" height="6.18"/>
              <g>
                <rect class="cls-1" x="116.75" y="341.19" width="3.02" height="3.02"/>
                <rect class="cls-1" x="121.33" y="341.19" width="3.02" height="3.02"/>
                <rect class="cls-1" x="125.91" y="341.19" width="3.02" height="3.02"/>
              </g>
            </g>
            <g>
              <rect class="cls-7" x="114.67" y="347.31" width="53.06" height="6.18"/>
              <g>
                <rect class="cls-1" x="116.75" y="348.89" width="3.02" height="3.02"/>
                <rect class="cls-1" x="121.33" y="348.89" width="3.02" height="3.02"/>
                <rect class="cls-1" x="125.91" y="348.89" width="3.02" height="3.02"/>
              </g>
            </g>
            <g>
              <rect class="cls-7" x="114.67" y="355.01" width="53.06" height="6.18"/>
              <g>
                <rect class="cls-1" x="116.75" y="356.59" width="3.02" height="3.02"/>
                <rect class="cls-1" x="121.33" y="356.59" width="3.02" height="3.02"/>
                <rect class="cls-1" x="125.91" y="356.59" width="3.02" height="3.02"/>
              </g>
            </g>
            <g>
              <rect class="cls-7" x="114.67" y="362.71" width="53.06" height="6.18"/>
              <g>
                <rect class="cls-1" x="116.75" y="364.29" width="3.02" height="3.02"/>
                <rect class="cls-1" x="121.33" y="364.29" width="3.02" height="3.02"/>
                <rect class="cls-1" x="125.91" y="364.29" width="3.02" height="3.02"/>
              </g>
            </g>
            <g>
              <rect class="cls-7" x="114.67" y="370.41" width="53.06" height="6.18"/>
              <g>
                <rect class="cls-1" x="116.75" y="371.99" width="3.02" height="3.02"/>
                <rect class="cls-1" x="121.33" y="371.99" width="3.02" height="3.02"/>
                <rect class="cls-1" x="125.91" y="371.99" width="3.02" height="3.02"/>
              </g>
            </g>
            <g>
              <rect class="cls-7" x="114.67" y="378.1" width="53.06" height="6.18"/>
              <g>
                <rect class="cls-1" x="116.75" y="379.69" width="3.02" height="3.02"/>
                <rect class="cls-1" x="121.33" y="379.69" width="3.02" height="3.02"/>
                <rect class="cls-1" x="125.91" y="379.69" width="3.02" height="3.02"/>
              </g>
            </g>
            <g>
              <rect class="cls-7" x="114.67" y="385.8" width="53.06" height="6.18"/>
              <g>
                <rect class="cls-1" x="116.75" y="387.39" width="3.02" height="3.02"/>
                <rect class="cls-1" x="121.33" y="387.39" width="3.02" height="3.02"/>
                <rect class="cls-1" x="125.91" y="387.39" width="3.02" height="3.02"/>
              </g>
            </g>
          </g>
        </g>
      </g>
      <g>
        <circle class="cls-15" cx="264.45" cy="391.71" r="22"/>
        <g>
          <path class="cls-7" d="M259.59,396.35l-9.59-3.82v-3.31l9.59-3.82v2.67l-7.63,2.94v-.28l7.63,2.94v2.67Z"/>
          <path class="cls-7" d="M260.72,402.38l4.24-21.34h3.23l-4.24,21.34h-3.23Z"/>
          <path class="cls-7" d="M269.32,396.35v-2.67l7.64-2.94v.28l-7.64-2.94v-2.67l9.59,3.82v3.31l-9.59,3.82Z"/>
        </g>
      </g>
      <g>
        <g>
          <path class="cls-7" d="M433.9,334.43c0,.39-.32,.71-.71,.71h-76.38c-.39,0-.71-.32-.71-.71v-13.33c0-.39,.32-.71,.71-.71h76.38c.39,0,.71,.32,.71,.71v13.33Z"/>
          <path class="cls-5" d="M365.85,327.83c0,1.48-1.2,2.68-2.68,2.68s-2.68-1.2-2.68-2.68,1.2-2.68,2.68-2.68c1.48,0,2.68,1.2,2.68,2.68Z"/>
          <path class="cls-15" d="M429.01,329.08c0,.79-.64,1.43-1.43,1.43h-24.75c-.79,0-1.43-.64-1.43-1.43v-2.5c0-.79,.64-1.43,1.43-1.43h24.75c.79,0,1.43,.64,1.43,1.43v2.5Z"/>
        </g>
        <g>
          <path class="cls-14" d="M433.9,352.52c0,.4-.32,.71-.71,.71h-76.38c-.39,0-.71-.32-.71-.71v-13.33c0-.39,.32-.71,.71-.71h76.38c.39,0,.71,.32,.71,.71v13.33Z"/>
          <path class="cls-7" d="M365.85,345.92c0,1.48-1.2,2.68-2.68,2.68s-2.68-1.2-2.68-2.68,1.2-2.68,2.68-2.68,2.68,1.2,2.68,2.68Z"/>
          <path class="cls-15" d="M429.01,347.17c0,.79-.64,1.43-1.43,1.43h-24.75c-.79,0-1.43-.64-1.43-1.43v-2.5c0-.79,.64-1.43,1.43-1.43h24.75c.79,0,1.43,.64,1.43,1.43v2.5Z"/>
        </g>
        <g>
          <path class="cls-7" d="M433.9,370.6c0,.39-.32,.71-.71,.71h-76.38c-.39,0-.71-.32-.71-.71v-13.33c0-.39,.32-.71,.71-.71h76.38c.39,0,.71,.32,.71,.71v13.33Z"/>
          <path class="cls-5" d="M365.85,364c0,1.48-1.2,2.68-2.68,2.68s-2.68-1.2-2.68-2.68,1.2-2.68,2.68-2.68,2.68,1.2,2.68,2.68Z"/>
          <path class="cls-15" d="M429.01,365.25c0,.79-.64,1.43-1.43,1.43h-24.75c-.79,0-1.43-.64-1.43-1.43v-2.5c0-.79,.64-1.43,1.43-1.43h24.75c.79,0,1.43,.64,1.43,1.43v2.5Z"/>
        </g>
        <g>
          <path class="cls-14" d="M433.9,388.69c0,.39-.32,.71-.71,.71h-76.38c-.39,0-.71-.32-.71-.71v-13.33c0-.39,.32-.71,.71-.71h76.38c.39,0,.71,.32,.71,.71v13.33Z"/>
          <path class="cls-7" d="M365.85,382.09c0,1.48-1.2,2.68-2.68,2.68s-2.68-1.2-2.68-2.68,1.2-2.68,2.68-2.68,2.68,1.2,2.68,2.68Z"/>
          <path class="cls-15" d="M429.01,383.34c0,.79-.64,1.43-1.43,1.43h-24.75c-.79,0-1.43-.64-1.43-1.43v-2.5c0-.79,.64-1.43,1.43-1.43h24.75c.79,0,1.43,.64,1.43,1.43v2.5Z"/>
        </g>
      </g>
    </g>
    <g>
      <path class="cls-14" d="M306.47,250c0-4.57,3-8.43,7.14-9.73-.73-4.82-1.99-9.46-3.73-13.87-4.23,.96-8.77-.87-11.07-4.81-2.3-3.94-1.65-8.78,1.27-11.99-3.07-3.8-6.57-7.25-10.41-10.26-3.16,2.96-7.99,3.68-11.97,1.44-3.98-2.24-5.88-6.75-4.97-10.99-4.15-1.56-8.5-2.72-12.99-3.4-1.3,4.13-5.16,7.14-9.73,7.14s-8.43-3-9.72-7.14c-4.82,.73-9.47,1.99-13.87,3.73,.96,4.23-.87,8.77-4.81,11.07-3.94,2.29-8.79,1.65-11.99-1.27-3.8,3.07-7.25,6.56-10.26,10.41,2.96,3.15,3.69,8,1.45,11.97-2.24,3.98-6.75,5.87-11,4.98-1.56,4.14-2.71,8.49-3.4,12.99,4.14,1.3,7.14,5.16,7.14,9.73s-3,8.42-7.13,9.73c.73,4.82,2,9.47,3.73,13.87,4.23-.96,8.77,.86,11.07,4.81,2.29,3.94,1.65,8.78-1.27,11.98,3.07,3.81,6.56,7.24,10.41,10.27,3.16-2.97,8-3.69,11.97-1.45s5.87,6.75,4.97,11c4.14,1.56,8.49,2.72,13,3.4,1.3-4.14,5.16-7.14,9.72-7.14s8.43,3.01,9.73,7.14c4.81-.73,9.46-1.99,13.87-3.73-.96-4.23,.86-8.77,4.81-11.07,3.94-2.29,8.78-1.65,11.98,1.27,3.8-3.07,7.25-6.56,10.27-10.41-2.96-3.16-3.69-7.99-1.45-11.97,2.24-3.98,6.76-5.87,10.99-4.97,1.57-4.14,2.72-8.5,3.4-12.99-4.14-1.3-7.14-5.16-7.14-9.73Zm-56.47,37.41c-20.66,0-37.41-16.74-37.41-37.41s16.75-37.41,37.41-37.41,37.41,16.75,37.41,37.41-16.75,37.41-37.41,37.41Z"/>
      <path class="cls-7" d="M250,299.25c-.33,0-.65,0-.98,0-1.1-.02-1.98-.93-1.96-2.04,.02-1.1,.94-1.95,2.04-1.96,1.25,.02,2.53,0,3.79-.08,1.09-.07,2.05,.77,2.12,1.87,.07,1.1-.77,2.05-1.87,2.12-1.04,.07-2.1,.1-3.14,.1Zm-8.8-.82c-.12,0-.25-.01-.37-.04-1.35-.26-2.7-.57-4.02-.93-1.06-.3-1.69-1.4-1.39-2.46,.29-1.06,1.4-1.69,2.46-1.39,1.21,.33,2.45,.62,3.69,.86,1.09,.2,1.8,1.25,1.59,2.34-.18,.96-1.02,1.63-1.96,1.63Zm19.63-.43c-.91,0-1.73-.62-1.95-1.54-.25-1.08,.42-2.15,1.49-2.4,1.23-.29,2.45-.63,3.65-1.02,1.05-.34,2.18,.23,2.52,1.28,.34,1.05-.23,2.18-1.28,2.52-1.3,.42-2.64,.8-3.97,1.11-.15,.04-.31,.05-.46,.05Zm-30.9-3.21c-.29,0-.57-.06-.85-.19-1.24-.58-2.47-1.23-3.66-1.91-.96-.55-1.28-1.77-.73-2.73,.55-.96,1.77-1.28,2.73-.73,1.09,.63,2.22,1.22,3.36,1.75,1,.47,1.43,1.66,.96,2.66-.34,.72-1.06,1.15-1.81,1.15Zm42-.92c-.72,0-1.42-.39-1.77-1.07-.51-.98-.14-2.19,.84-2.7,1.11-.58,2.21-1.22,3.27-1.9,.93-.59,2.17-.32,2.76,.61,.59,.93,.32,2.17-.61,2.76-1.16,.74-2.36,1.43-3.57,2.07-.3,.16-.61,.23-.93,.23Zm-52-5.42c-.45,0-.9-.15-1.27-.46-1.06-.87-2.09-1.8-3.07-2.76-.79-.77-.81-2.04-.03-2.83,.77-.79,2.04-.8,2.83-.03,.9,.88,1.85,1.73,2.82,2.53,.85,.7,.97,1.96,.27,2.82-.4,.48-.97,.73-1.54,.73Zm61.71-1.35c-.55,0-1.09-.22-1.49-.66-.74-.82-.67-2.08,.15-2.82,.93-.84,1.85-1.73,2.7-2.65,.76-.81,2.02-.85,2.83-.09,.81,.76,.85,2.02,.09,2.83-.94,1-1.93,1.97-2.95,2.89-.38,.34-.86,.51-1.34,.51Zm-69.82-7.27c-.62,0-1.23-.28-1.62-.82-.81-1.11-1.58-2.26-2.29-3.43-.57-.94-.28-2.17,.67-2.75,.94-.58,2.17-.28,2.75,.67,.65,1.07,1.36,2.13,2.1,3.15,.65,.89,.46,2.14-.44,2.8-.35,.26-.77,.38-1.18,.38Zm77.56-1.7c-.38,0-.77-.11-1.11-.33-.92-.61-1.17-1.85-.56-2.77,.7-1.05,1.36-2.14,1.96-3.24,.53-.97,1.75-1.32,2.72-.79,.97,.53,1.32,1.75,.79,2.72-.66,1.2-1.38,2.39-2.14,3.53-.38,.58-1.02,.89-1.67,.89Zm-83.28-8.66c-.79,0-1.55-.48-1.86-1.26-.51-1.27-.96-2.58-1.36-3.89-.32-1.06,.27-2.17,1.33-2.49,1.06-.33,2.17,.27,2.49,1.33,.37,1.21,.79,2.41,1.25,3.57,.41,1.03-.09,2.19-1.12,2.6-.24,.1-.49,.14-.74,.14Zm88.56-1.95c-.22,0-.44-.04-.66-.11-1.04-.36-1.6-1.5-1.23-2.55,.41-1.19,.78-2.41,1.09-3.62,.27-1.07,1.36-1.72,2.43-1.44,1.07,.27,1.72,1.36,1.44,2.43-.34,1.33-.74,2.65-1.19,3.95-.29,.83-1.06,1.34-1.89,1.34Zm-91.52-9.52c-.99,0-1.85-.74-1.98-1.75-.17-1.35-.29-2.74-.35-4.11-.05-1.1,.81-2.04,1.91-2.08,1.12-.06,2.04,.81,2.08,1.91,.05,1.26,.16,2.53,.32,3.77,.14,1.1-.64,2.1-1.73,2.24-.09,.01-.17,.02-.26,.02Zm93.97-2.07c-.06,0-.11,0-.17,0-1.1-.09-1.92-1.06-1.83-2.16,.1-1.24,.16-2.52,.16-3.79v-.19c0-1.1,.9-2,2-2s2,.9,2,2v.19c0,1.38-.06,2.76-.17,4.12-.09,1.04-.96,1.83-1.99,1.83Zm-93.99-9.77c-.08,0-.16,0-.25-.01-1.1-.13-1.88-1.13-1.74-2.23,.17-1.36,.39-2.73,.67-4.07,.23-1.08,1.29-1.77,2.37-1.55,1.08,.23,1.77,1.29,1.55,2.37-.26,1.23-.46,2.49-.62,3.74-.12,1.01-.99,1.76-1.98,1.76Zm93.46-2.24c-.96,0-1.8-.69-1.97-1.66-.21-1.25-.48-2.49-.8-3.7-.28-1.07,.36-2.16,1.43-2.44,1.07-.28,2.16,.36,2.44,1.43,.34,1.32,.64,2.67,.87,4.03,.19,1.09-.54,2.12-1.63,2.31-.11,.02-.23,.03-.34,.03Zm-90.55-9.23c-.24,0-.49-.04-.73-.14-1.03-.4-1.53-1.57-1.13-2.59,.5-1.28,1.07-2.55,1.67-3.77,.49-.99,1.69-1.4,2.68-.9,.99,.49,1.4,1.69,.9,2.68-.56,1.12-1.07,2.29-1.54,3.46-.31,.79-1.06,1.27-1.86,1.27Zm87.09-2.09c-.76,0-1.49-.44-1.82-1.18-.52-1.15-1.09-2.29-1.7-3.38-.54-.96-.19-2.18,.78-2.72,.97-.54,2.18-.19,2.72,.78,.66,1.19,1.29,2.43,1.85,3.68,.45,1.01,0,2.19-1,2.65-.27,.12-.55,.18-.82,.18Zm-81.4-8.3c-.41,0-.82-.12-1.17-.38-.9-.65-1.1-1.9-.45-2.79,.8-1.11,1.66-2.2,2.55-3.24,.72-.84,1.98-.93,2.82-.21,.84,.72,.93,1.98,.21,2.82-.82,.96-1.61,1.96-2.35,2.97-.39,.54-1,.83-1.62,.83Zm75.23-1.8c-.59,0-1.17-.26-1.56-.75-.79-.98-1.62-1.95-2.49-2.86-.76-.8-.73-2.07,.08-2.83,.8-.76,2.07-.73,2.83,.08,.94,.99,1.85,2.04,2.71,3.11,.69,.86,.55,2.12-.31,2.81-.37,.29-.81,.44-1.25,.44Zm-67.14-6.85c-.57,0-1.14-.24-1.54-.72-.71-.85-.59-2.11,.26-2.82,1.05-.88,2.15-1.72,3.27-2.5,.91-.63,2.15-.41,2.79,.49,.63,.9,.41,2.15-.49,2.79-1.03,.72-2.04,1.5-3.01,2.3-.37,.31-.83,.46-1.28,.46Zm58.65-1.4c-.42,0-.84-.13-1.2-.4-1.01-.76-2.05-1.48-3.12-2.15-.93-.59-1.21-1.82-.62-2.76,.59-.93,1.83-1.21,2.76-.62,1.16,.73,2.3,1.52,3.39,2.35,.88,.66,1.06,1.92,.39,2.8-.4,.52-.99,.8-1.6,.8Zm-48.68-4.97c-.75,0-1.47-.42-1.81-1.14-.47-1-.05-2.19,.95-2.66,1.24-.59,2.51-1.13,3.79-1.61,1.03-.39,2.19,.14,2.57,1.17s-.14,2.19-1.17,2.57c-1.18,.44-2.35,.94-3.48,1.48-.28,.13-.57,.19-.86,.19Zm38.41-.92c-.26,0-.52-.05-.77-.15-1.16-.48-2.36-.92-3.56-1.31-1.05-.34-1.63-1.46-1.29-2.52,.34-1.05,1.46-1.63,2.52-1.29,1.31,.42,2.61,.9,3.87,1.43,1.02,.43,1.5,1.6,1.08,2.62-.32,.77-1.06,1.23-1.85,1.23Zm-27.16-2.77c-.94,0-1.78-.66-1.96-1.62-.21-1.09,.5-2.13,1.59-2.34,1.35-.26,2.72-.46,4.08-.61,1.1-.12,2.08,.68,2.2,1.78,.12,1.1-.68,2.08-1.78,2.2-1.25,.13-2.51,.32-3.75,.56-.13,.02-.25,.04-.38,.04Zm15.75-.38c-.1,0-.19,0-.29-.02-1.24-.18-2.51-.31-3.77-.38-1.1-.07-1.94-1.01-1.88-2.11,.07-1.1,1.02-1.95,2.11-1.88,1.37,.08,2.75,.22,4.1,.41,1.09,.16,1.85,1.17,1.7,2.26-.14,1-1,1.72-1.98,1.72Z"/>
    </g>
    <g>
      <g>
        <g>
          <g>
            <path class="cls-3" d="M192.66,88.59h-2c-.41,0-.75-.34-.75-.75s.34-.75,.75-.75h2c.41,0,.75,.34,.75,.75s-.34,.75-.75,.75Z"/>
            <path class="cls-3" d="M273.55,88.59h-4.04c-.41,0-.75-.34-.75-.75s.34-.75,.75-.75h4.04c.41,0,.75,.34,.75,.75s-.34,.75-.75,.75Zm-8.09,0h-4.05c-.41,0-.75-.34-.75-.75s.34-.75,.75-.75h4.05c.41,0,.75,.34,.75,.75s-.34,.75-.75,.75Zm-8.09,0h-4.04c-.41,0-.75-.34-.75-.75s.34-.75,.75-.75h4.04c.41,0,.75,.34,.75,.75s-.34,.75-.75,.75Zm-8.09,0h-4.04c-.41,0-.75-.34-.75-.75s.34-.75,.75-.75h4.04c.41,0,.75,.34,.75,.75s-.34,.75-.75,.75Zm-8.09,0h-4.04c-.41,0-.75-.34-.75-.75s.34-.75,.75-.75h4.04c.41,0,.75,.34,.75,.75s-.34,.75-.75,.75Zm-8.09,0h-4.04c-.41,0-.75-.34-.75-.75s.34-.75,.75-.75h4.04c.41,0,.75,.34,.75,.75s-.34,.75-.75,.75Zm-8.09,0h-4.04c-.41,0-.75-.34-.75-.75s.34-.75,.75-.75h4.04c.41,0,.75,.34,.75,.75s-.34,.75-.75,.75Zm-8.09,0h-4.04c-.41,0-.75-.34-.75-.75s.34-.75,.75-.75h4.04c.41,0,.75,.34,.75,.75s-.34,.75-.75,.75Zm-8.09,0h-4.04c-.41,0-.75-.34-.75-.75s.34-.75,.75-.75h4.04c.41,0,.75,.34,.75,.75s-.34,.75-.75,.75Zm-8.09,0h-4.04c-.41,0-.75-.34-.75-.75s.34-.75,.75-.75h4.04c.41,0,.75,.34,.75,.75s-.34,.75-.75,.75Z"/>
            <path class="cls-3" d="M279.59,88.59h-2c-.41,0-.75-.34-.75-.75s.34-.75,.75-.75h2c.41,0,.75,.34,.75,.75s-.34,.75-.75,.75Z"/>
          </g>
          <polygon class="cls-3" points="282.48 82.86 291.1 87.84 282.48 92.81 282.48 82.86"/>
        </g>
        <g>
          <g>
            <path class="cls-3" d="M309.34,127.07h-2c-.42-.01-.75-.35-.75-.77,0-.41,.34-.75,.75-.75h2c.42,.01,.75,.35,.75,.77,0,.41-.34,.75-.75,.75Z"/>
            <path class="cls-3" d="M303.36,127.03h0l-3.98-.02c-.42,0-.75-.34-.75-.75,0-.41,.34-.75,.75-.75h0l3.98,.02c.42,0,.75,.34,.75,.75,0,.41-.34,.75-.75,.75Zm-7.96-.05h0l-3.98-.02c-.42,0-.75-.34-.75-.75,0-.41,.34-.75,.75-.75h0l3.98,.02c.42,0,.75,.34,.75,.75,0,.41-.34,.75-.75,.75Zm-7.96-.05h0l-3.98-.02c-.42,0-.75-.34-.75-.75,0-.41,.34-.75,.75-.75h0l3.98,.02c.42,0,.75,.34,.75,.75,0,.41-.34,.75-.75,.75Zm-7.96-.05h0l-3.98-.02c-.42,0-.75-.34-.75-.75,0-.41,.34-.75,.75-.75h0l3.98,.02c.42,0,.75,.34,.75,.75,0,.41-.34,.75-.75,.75Zm-7.96-.05h0l-3.98-.02c-.42,0-.75-.34-.75-.75,0-.41,.34-.75,.75-.75h0l3.98,.02c.42,0,.75,.34,.75,.75,0,.41-.34,.75-.75,.75Zm-7.96-.05h0l-3.98-.02c-.42,0-.75-.34-.75-.75,0-.41,.34-.75,.75-.75h0l3.98,.02c.42,0,.75,.34,.75,.75,0,.41-.34,.75-.75,.75Zm-7.96-.05h0l-3.98-.02c-.41,0-.75-.34-.75-.75,0-.41,.34-.75,.75-.75h0l3.98,.02c.42,0,.75,.34,.75,.75,0,.41-.34,.75-.75,.75Zm-7.96-.05h0l-3.98-.02c-.41,0-.75-.34-.75-.75,0-.41,.34-.75,.75-.75h0l3.98,.02c.41,0,.75,.34,.75,.75,0,.41-.34,.75-.75,.75Zm-7.96-.05h0l-3.98-.02c-.41,0-.75-.34-.75-.75,0-.41,.34-.75,.75-.75h0l3.98,.02c.41,0,.75,.34,.75,.75,0,.41-.34,.75-.75,.75Zm-7.96-.05h0l-3.98-.02c-.41,0-.75-.34-.75-.75,0-.42,.34-.76,.75-.75l3.98,.02c.41,0,.75,.34,.75,.75,0,.41-.34,.75-.75,.75Zm-7.96-.05h0l-3.98-.02c-.41,0-.75-.34-.75-.75,0-.41,.34-.75,.75-.75h0l3.98,.02c.41,0,.75,.34,.75,.75,0,.41-.34,.75-.75,.75Z"/>
            <path class="cls-3" d="M215.84,126.52h-2c-.41-.01-.75-.35-.75-.77,0-.41,.34-.75,.75-.75h2c.41,.01,.75,.35,.75,.77,0,.41-.34,.75-.75,.75Z"/>
          </g>
          <polygon class="cls-3" points="212.46 120.79 203.84 125.76 212.46 130.74 212.46 120.79"/>
        </g>
      </g>
      <g>
        <g>
          <polygon class="cls-3" points="104.96 283.65 109.93 292.27 114.91 283.65 104.96 283.65"/>
          <polygon class="cls-3" points="169.5 229.06 178.12 224.09 169.5 219.11 169.5 229.06"/>
          <g>
            <path class="cls-3" d="M109.93,288.71c-.41,0-.75-.34-.75-.75,0-.68,.01-1.35,.03-2.02,.01-.41,.37-.72,.77-.73,.41,.01,.74,.36,.73,.77-.02,.66-.03,1.32-.03,1.98,0,.41-.34,.75-.75,.75Z"/>
            <path class="cls-3" d="M110.2,282.87s-.04,0-.07,0c-.41-.04-.72-.4-.68-.82,.12-1.29,.27-2.6,.47-3.87,.06-.41,.45-.69,.85-.63,.41,.06,.69,.44,.63,.85-.19,1.24-.34,2.52-.46,3.78-.03,.39-.36,.68-.75,.68Zm1.15-7.61c-.05,0-.11,0-.16-.02-.4-.09-.66-.48-.58-.89,.27-1.26,.58-2.54,.93-3.78,.11-.4,.52-.63,.92-.52,.4,.11,.63,.52,.52,.92-.34,1.22-.64,2.46-.91,3.7-.08,.35-.39,.59-.73,.59Zm2.07-7.42c-.08,0-.16-.01-.25-.04-.39-.14-.6-.56-.46-.95,.42-1.23,.89-2.45,1.39-3.65,.16-.38,.6-.57,.98-.4,.38,.16,.56,.6,.41,.98-.49,1.17-.94,2.37-1.35,3.56-.11,.31-.4,.51-.71,.51Zm2.95-7.12c-.11,0-.22-.02-.33-.08-.37-.18-.53-.63-.35-1,.57-1.16,1.18-2.33,1.82-3.45,.2-.36,.66-.49,1.02-.28s.49,.66,.28,1.02c-.62,1.1-1.22,2.24-1.77,3.37-.13,.27-.4,.42-.67,.42Zm3.79-6.71c-.14,0-.28-.04-.41-.12-.35-.23-.45-.69-.22-1.04,.7-1.09,1.45-2.16,2.22-3.21,.25-.33,.72-.4,1.05-.16,.33,.25,.4,.71,.16,1.05-.75,1.02-1.48,2.07-2.17,3.13-.14,.22-.38,.34-.63,.34Zm4.57-6.2c-.17,0-.34-.06-.48-.17-.32-.26-.36-.74-.1-1.06,.83-.99,1.7-1.98,2.59-2.92,.29-.3,.76-.32,1.06-.03,.3,.28,.32,.76,.03,1.06-.87,.92-1.72,1.88-2.53,2.85-.15,.18-.36,.27-.58,.27Zm5.28-5.61c-.2,0-.4-.08-.55-.24-.28-.3-.27-.78,.03-1.06,.94-.88,1.92-1.75,2.92-2.59,.32-.27,.79-.22,1.06,.1,.27,.32,.22,.79-.1,1.06-.97,.81-1.93,1.66-2.85,2.52-.15,.14-.33,.21-.51,.21Zm5.91-4.93c-.23,0-.46-.1-.6-.3-.25-.33-.18-.8,.16-1.05,1.04-.77,2.12-1.51,3.2-2.22,.35-.23,.81-.13,1.04,.22,.23,.35,.13,.81-.22,1.04-1.06,.69-2.11,1.41-3.13,2.16-.13,.1-.29,.15-.44,.15Zm6.46-4.18c-.26,0-.52-.14-.65-.38-.2-.36-.08-.82,.28-1.02,1.12-.63,2.28-1.25,3.45-1.81,.37-.18,.82-.03,1,.35,.18,.37,.03,.82-.35,1-1.14,.55-2.27,1.15-3.37,1.77-.12,.07-.24,.1-.37,.1Zm6.91-3.37c-.29,0-.57-.17-.69-.46-.16-.38,.02-.82,.4-.98,1.2-.5,2.42-.96,3.64-1.38,.39-.13,.82,.07,.95,.46s-.07,.82-.46,.95c-1.19,.41-2.38,.87-3.55,1.35-.09,.04-.19,.06-.29,.06Zm7.27-2.51c-.33,0-.63-.22-.72-.55-.11-.4,.12-.81,.52-.92,1.24-.35,2.51-.66,3.78-.93,.4-.09,.8,.17,.89,.58s-.17,.8-.58,.89c-1.24,.27-2.48,.57-3.7,.91-.07,.02-.13,.03-.2,.03Zm7.53-1.62c-.36,0-.68-.27-.74-.64-.06-.41,.22-.79,.63-.85,1.28-.19,2.58-.35,3.87-.47,.4-.04,.78,.27,.82,.68,.04,.41-.27,.78-.68,.82-1.26,.11-2.53,.27-3.78,.46-.04,0-.08,0-.11,0Z"/>
            <path class="cls-3" d="M171.81,224.87c-.4,0-.74-.32-.75-.73-.01-.41,.31-.76,.73-.77,.67-.02,1.35-.03,2.02-.03,.41,0,.75,.34,.75,.75s-.34,.75-.75,.75c-.66,0-1.32,0-1.98,.03,0,0-.02,0-.02,0Z"/>
          </g>
        </g>
        <g>
          <polygon class="cls-3" points="332.22 288.01 323.6 283.03 332.22 278.06 332.22 288.01"/>
          <polygon class="cls-3" points="386.81 223.46 391.79 214.84 396.76 223.46 386.81 223.46"/>
          <g>
            <path class="cls-3" d="M327.91,283.78c-.41,0-.75-.34-.75-.75s.34-.75,.75-.75c.66,0,1.32-.01,1.98-.03,.4-.02,.76,.31,.77,.73,.01,.41-.31,.76-.73,.77-.67,.02-1.35,.03-2.02,.03Z"/>
            <path class="cls-3" d="M333.76,283.52c-.38,0-.71-.29-.75-.68-.04-.41,.27-.78,.68-.81,1.26-.11,2.53-.27,3.78-.46,.41-.07,.79,.22,.85,.63,.06,.41-.22,.79-.63,.85-1.27,.19-2.58,.35-3.87,.47-.02,0-.05,0-.07,0Zm7.61-1.15c-.35,0-.66-.24-.73-.59-.09-.4,.17-.8,.58-.89,1.24-.27,2.48-.57,3.7-.91,.4-.11,.81,.12,.92,.52,.11,.4-.12,.81-.52,.92-1.24,.35-2.51,.66-3.78,.93-.05,.01-.11,.02-.16,.02Zm7.42-2.07c-.31,0-.6-.19-.71-.51-.14-.39,.07-.82,.46-.95,1.19-.41,2.39-.87,3.56-1.35,.38-.15,.82,.02,.98,.41,.16,.38-.02,.82-.41,.98-1.2,.5-2.43,.96-3.65,1.39-.08,.03-.16,.04-.24,.04Zm7.12-2.95c-.28,0-.55-.15-.67-.42-.18-.37-.03-.82,.35-1,1.14-.55,2.27-1.15,3.37-1.77,.36-.2,.82-.08,1.02,.28,.2,.36,.08,.82-.28,1.02-1.13,.64-2.29,1.25-3.45,1.82-.11,.05-.22,.08-.33,.08Zm6.71-3.79c-.25,0-.49-.12-.63-.34-.23-.35-.13-.81,.22-1.04,1.05-.68,2.11-1.41,3.13-2.17,.33-.25,.8-.17,1.05,.16,.25,.33,.17,.8-.16,1.05-1.05,.77-2.13,1.52-3.21,2.22-.13,.08-.27,.12-.41,.12Zm6.2-4.57c-.21,0-.43-.09-.58-.27-.27-.32-.22-.79,.1-1.06,.97-.81,1.93-1.66,2.85-2.53,.3-.28,.77-.27,1.06,.03,.28,.3,.27,.77-.03,1.06-.94,.89-1.93,1.76-2.92,2.59-.14,.12-.31,.17-.48,.17Zm5.61-5.28c-.18,0-.37-.07-.51-.2-.3-.28-.32-.76-.03-1.06,.87-.93,1.72-1.89,2.52-2.85,.27-.32,.74-.36,1.06-.1,.32,.27,.36,.74,.1,1.06-.82,.99-1.69,1.97-2.58,2.92-.15,.16-.35,.24-.55,.24Zm4.93-5.91c-.15,0-.31-.05-.44-.15-.33-.24-.4-.71-.16-1.05,.75-1.02,1.48-2.07,2.17-3.13,.23-.35,.69-.45,1.04-.22,.35,.23,.45,.69,.22,1.04-.7,1.09-1.45,2.17-2.22,3.2-.15,.2-.37,.31-.61,.31Zm4.19-6.46c-.12,0-.25-.03-.37-.1-.36-.2-.49-.66-.28-1.02,.62-1.1,1.22-2.23,1.77-3.37,.18-.37,.63-.53,1-.35,.37,.18,.53,.63,.35,1-.57,1.16-1.18,2.32-1.81,3.45-.14,.25-.39,.38-.65,.38Zm3.38-6.91c-.1,0-.19-.02-.29-.06-.38-.16-.56-.6-.4-.98,.48-1.17,.94-2.37,1.35-3.55,.14-.39,.56-.6,.95-.46,.39,.13,.6,.56,.46,.95-.42,1.22-.89,2.44-1.38,3.64-.12,.29-.4,.46-.69,.46Zm2.51-7.27c-.07,0-.13,0-.2-.03-.4-.11-.63-.52-.52-.92,.34-1.21,.65-2.46,.91-3.7,.09-.41,.49-.66,.89-.58,.4,.09,.66,.49,.58,.89-.27,1.27-.59,2.54-.93,3.78-.09,.33-.39,.55-.72,.55Zm1.62-7.53s-.08,0-.11,0c-.41-.06-.69-.45-.63-.85,.19-1.25,.35-2.52,.46-3.78,.04-.41,.39-.72,.82-.68,.41,.04,.72,.4,.68,.82-.12,1.29-.28,2.59-.47,3.87-.06,.37-.38,.64-.74,.64Z"/>
            <path class="cls-3" d="M391.76,221.9s-.02,0-.02,0c-.41-.01-.74-.36-.73-.77,.02-.66,.03-1.32,.03-1.98,0-.41,.34-.75,.75-.75s.75,.34,.75,.75c0,.68-.01,1.35-.03,2.02-.01,.41-.35,.73-.75,.73Z"/>
          </g>
        </g>
      </g>
    </g>
  </g>
  <text class="cls-9" transform="translate(220.24 259.92)"><tspan x="0" y="0">API</tspan></text>
  <g>
    <text class="cls-8" transform="translate(232.3 79.67)"><tspan class="cls-2" x="0" y="0">R</tspan><tspan x="5.42" y="0">equest</tspan></text>
    <text class="cls-8" transform="translate(229.58 117.6)"><tspan class="cls-2" x="0" y="0">R</tspan><tspan x="5.42" y="0">esponse</tspan></text>
  </g>
  <text class="cls-10" transform="translate(67.27 172.34)"><tspan x="0" y="0">Using Application</tspan></text>
  <rect class="cls-17" x="64.56" y="182.28" width="101.54" height="22.67"/>
  <text class="cls-6" transform="translate(317.05 172.34)"><tspan x="0" y="0">Cloud-Based Services</tspan></text>
  <text class="cls-10" transform="translate(98.46 428.95)"><tspan x="0" y="0">Server</tspan></text>
  <text class="cls-10" transform="translate(369.45 428.95)"><tspan x="0" y="0">Database</tspan></text>
</svg>