<svg width="28" height="29" viewBox="0 0 28 29" fill="none" xmlns="http://www.w3.org/2000/svg">
  <path
    d="M10.7002 25.9134H17.5883C23.3283 25.9134 25.6244 23.6174 25.6244 17.8773V10.9892C25.6244 5.24915 23.3283 2.95312 17.5883 2.95312H10.7002C4.96009 2.95312 2.66406 5.24915 2.66406 10.9892V17.8773C2.66406 23.6174 4.96009 25.9134 10.7002 25.9134Z"
    stroke="#023047"
    stroke-width="1.72202"
    stroke-linecap="round"
    stroke-linejoin="round"
  />
  <path
    d="M19.0565 16.2819C17.7592 17.5791 15.8994 17.9809 14.2578 17.4643L11.2844 20.4262C11.0778 20.6443 10.653 20.7821 10.343 20.7362L8.96543 20.5525C8.50622 20.4951 8.09294 20.0588 8.02406 19.6111L7.84037 18.2335C7.79445 17.935 7.9437 17.5103 8.15034 17.2921L11.1122 14.3303C10.6071 12.6886 10.9974 10.8288 12.2947 9.53156C14.1545 7.67177 17.1852 7.67177 19.0565 9.53156C20.9163 11.3799 20.9163 14.4106 19.0565 16.2819Z"
    stroke="#023047"
    stroke-width="1.72202"
    stroke-miterlimit="10"
    stroke-linecap="round"
    stroke-linejoin="round"
  />
  <path
    d="M12.3664 19.3467L11.3906 18.3594"
    stroke="#292D32"
    stroke-width="1.72202"
    stroke-miterlimit="10"
    stroke-linecap="round"
    stroke-linejoin="round"
  />
  <path
    d="M15.7435 12.9373H15.7538"
    stroke="#292D32"
    stroke-width="2.29603"
    stroke-linecap="round"
    stroke-linejoin="round"
  />
</svg>
