<?xml version="1.0" standalone="no"?>
<!DOCTYPE svg PUBLIC "-//W3C//DTD SVG 20010904//EN"
 "http://www.w3.org/TR/2001/REC-SVG-20010904/DTD/svg10.dtd">
<svg version="1.0" xmlns="http://www.w3.org/2000/svg"
 width="163.000000pt" height="163.000000pt" viewBox="0 0 163.000000 163.000000"
 preserveAspectRatio="xMidYMid meet">
<metadata>
Created by potrace 1.14, written by Peter Selinger 2001-2017
</metadata>
<g transform="translate(0.000000,163.000000) scale(0.100000,-0.100000)"
fill="#000000" stroke="none">
<path d="M596 1493 c-4 -4 -40 -26 -80 -48 -40 -22 -131 -73 -202 -113 l-129
-73 3 -219 3 -218 -81 -42 c-80 -42 -80 -43 -58 -58 26 -18 203 -142 456 -322
96 -67 170 -125 165 -129 -4 -4 -52 -36 -105 -70 -54 -35 -98 -64 -98 -65 0 0
73 0 162 1 90 1 320 3 512 4 l348 3 -6 110 c-4 60 -9 126 -11 145 -2 20 -7 79
-10 131 -3 52 -9 127 -12 165 -3 39 -5 78 -5 88 1 20 4 21 -97 -46 l-73 -49
-94 47 c-60 30 -94 53 -95 63 0 10 0 123 1 253 l1 235 -83 39 c-213 99 -384
175 -394 175 -6 0 -14 -3 -18 -7z m224 -163 c74 -34 136 -64 138 -65 2 -2 -70
-43 -159 -93 -148 -82 -164 -89 -188 -78 -14 6 -86 42 -160 80 l-134 68 54 31
c30 17 99 56 153 88 95 55 101 57 130 44 17 -7 92 -41 166 -75z m200 -347 c-1
-98 -2 -190 -3 -204 -1 -22 -24 -42 -151 -130 -82 -57 -156 -108 -163 -112
-11 -6 -13 36 -13 221 l0 230 28 13 c34 18 203 112 257 144 22 13 42 22 44 20
2 -2 2 -84 1 -182z m-600 81 c137 -69 150 -77 150 -102 1 -15 2 -118 4 -229 2
-141 0 -201 -7 -196 -6 4 -79 54 -161 112 l-151 106 2 95 c1 52 2 139 2 193 1
53 3 97 6 97 3 0 73 -34 155 -76z"/>
</g>
</svg>
